<?xml version="1.0" encoding="UTF-8" standalone="no"?><!DOCTYPE svg PUBLIC "-//W3C//DTD SVG 1.1//EN" "http://www.w3.org/Graphics/SVG/1.1/DTD/svg11.dtd"><svg width="100%" height="100%" viewBox="0 0 1920 1080" version="1.1" xmlns="http://www.w3.org/2000/svg" xmlns:xlink="http://www.w3.org/1999/xlink" xml:space="preserve" xmlns:serif="http://www.serif.com/" style="fill-rule:evenodd;clip-rule:evenodd;stroke-linejoin:round;stroke-miterlimit:2;"><rect id="Artboard1" x="0" y="0" width="1920" height="1080" style="fill:url(#_Linear1);"/><clipPath id="_clip2"><rect x="0" y="0" width="1920" height="1080"/></clipPath><g clip-path="url(#_clip2)"><clipPath id="_clip3"><rect id="blobs" x="0" y="0" width="1917.87" height="1080"/></clipPath><g clip-path="url(#_clip3)"><path d="M132.353,838.344c-95.394,22.175 -70.422,-1.798 -167.314,-56.338c-15.15,24.773 -48.047,79.592 -58.435,100.688c-12.986,26.371 -43.951,114.473 -56.937,206.771c-12.986,92.297 58.435,52.142 115.372,30.566c56.937,-21.576 128.857,-32.364 140.843,40.155c11.987,72.524 140.344,46.154 247.725,34.162c107.381,-11.987 138.846,-50.344 174.306,-74.317c35.461,-23.974 19.978,-151.032 -11.986,-221.155c-31.965,-70.122 -96.893,-140.843 -148.835,-116.87c-51.942,23.974 -139.345,34.162 -234.739,56.338Z" style="fill:url(#_Radial4);fill-rule:nonzero;"/><path d="M1587.66,1272.35c81.909,-71.92 249.722,7.792 375.583,-34.162c25.471,0 31.465,-54.542 81.909,-86.906c50.444,-32.364 54.939,-49.744 91.898,-146.237c36.958,-96.493 -23.474,-64.728 -173.807,-130.655c-150.333,-65.927 -114.373,-22.175 -340.122,-28.169c-225.75,-5.993 -122.365,0 -318.147,120.467c-195.782,120.466 -83.907,112.674 -80.411,271.5c3.496,158.824 101.887,204.972 118.868,200.777c16.981,-4.195 31.965,-14.384 58.435,-96.493c26.471,-82.108 26.97,-104.284 58.935,-70.122c31.964,34.162 44.95,71.92 126.859,0Z" style="fill:url(#_Radial5);fill-rule:nonzero;"/><path d="M2019.16,181.04c-20.107,5.247 -64.877,37.798 -83.007,126.014c-46.329,71.404 -100.758,91.957 -100.848,57.011c-0.09,-34.947 -49.725,-83.688 -105.223,-116.27c-55.259,-32.44 -5.574,-129.873 26.74,-193.23l0.42,-0.827c32.304,-63.333 37.038,10.963 89.24,-5.883c41.764,-13.476 45.05,-25.658 41.464,-30.064c38.667,4.173 126.54,23.231 168.653,66.08c42.113,42.849 -7.412,82.632 -37.439,97.169Z" style="fill:url(#_Radial6);fill-rule:nonzero;"/><path d="M426.518,-48.671c54.939,-58.136 21.976,-50.344 80.411,-115.072c70.421,0 26.97,62.33 33.463,80.91c6.492,18.579 6.992,114.473 -73.419,158.224c-80.411,43.751 -16.981,64.729 -40.455,151.033c-23.474,86.304 -38.457,50.344 -108.879,72.519c-70.422,22.175 -75.416,-26.371 -122.364,-82.708c-46.948,-56.337 18.479,-80.311 46.948,-140.844c28.468,-60.533 33.463,-59.933 75.416,-43.751c41.953,16.182 53.94,-22.176 108.879,-80.311Z" style="fill:url(#_Radial7);fill-rule:nonzero;"/><path d="M770.514,330.509c-75.553,-20.467 -54.57,-180.776 -50.761,-290.36c-0.582,-19.664 12.836,-82.726 71.161,-177.67c72.907,-118.679 80.547,10.877 71.158,65.715c-9.388,54.837 13.063,95.043 71.929,134.61c58.866,39.567 128.488,-59.852 184.316,-31.846c55.838,28.005 -57.656,165.769 -97.122,210.865c-39.46,45.097 21.237,79.594 -5.733,126.717c-26.973,47.122 -89.406,87.658 -131.086,76.708c-41.679,-10.951 -38.309,-94.272 -113.862,-114.739Z" style="fill:url(#_Radial8);fill-rule:nonzero;"/></g></g><defs><linearGradient id="_Linear1" x1="0" y1="0" x2="1" y2="0" gradientUnits="userSpaceOnUse" gradientTransform="matrix(5.51091e-14,1080,-900,6.61309e-14,960,0)"><stop offset="0" style="stop-color:#00d0fe;stop-opacity:1"/><stop offset="1" style="stop-color:#7c39bf;stop-opacity:1"/></linearGradient><radialGradient id="_Radial4" cx="0" cy="0" r="1" gradientUnits="userSpaceOnUse" gradientTransform="matrix(-6.88802e-14,215.893,-350.05,-1.60823e-13,198.17,993.133)"><stop offset="0" style="stop-color:#9756d8;stop-opacity:1"/><stop offset="1" style="stop-color:#c4c4c4;stop-opacity:0"/></radialGradient><radialGradient id="_Radial5" cx="0" cy="0" r="1" gradientUnits="userSpaceOnUse" gradientTransform="matrix(-9.59908e-14,-300.867,479.012,-2.20072e-13,1668.61,1138.35)"><stop offset="0" style="stop-color:#9756d8;stop-opacity:1"/><stop offset="1" style="stop-color:#c4c4c4;stop-opacity:0"/></radialGradient><radialGradient id="_Radial6" cx="0" cy="0" r="1" gradientUnits="userSpaceOnUse" gradientTransform="matrix(154.422,-111.966,76.5434,152.017,1886.12,156.577)"><stop offset="0" style="stop-color:#00d0fe;stop-opacity:1"/><stop offset="0.06" style="stop-color:#00d0fe;stop-opacity:1"/><stop offset="1" style="stop-color:#c4c4c4;stop-opacity:0"/></radialGradient><radialGradient id="_Radial7" cx="0" cy="0" r="1" gradientUnits="userSpaceOnUse" gradientTransform="matrix(-7.46848e-14,234.087,-184.485,-8.47576e-14,363.286,70.3431)"><stop offset="0" style="stop-color:#00d0fe;stop-opacity:1"/><stop offset="0.06" style="stop-color:#00d0fe;stop-opacity:1"/><stop offset="1" style="stop-color:#c4c4c4;stop-opacity:0"/></radialGradient><radialGradient id="_Radial8" cx="0" cy="0" r="1" gradientUnits="userSpaceOnUse" gradientTransform="matrix(112.497,276.829,-202.61,118.565,908.432,113.537)"><stop offset="0" style="stop-color:#00d0fe;stop-opacity:1"/><stop offset="0.06" style="stop-color:#00d0fe;stop-opacity:1"/><stop offset="1" style="stop-color:#c4c4c4;stop-opacity:0"/></radialGradient></defs></svg>