<?xml version="1.0" encoding="UTF-8" standalone="no"?><!DOCTYPE svg PUBLIC "-//W3C//DTD SVG 1.1//EN" "http://www.w3.org/Graphics/SVG/1.1/DTD/svg11.dtd"><svg width="100%" height="100%" viewBox="0 0 1920 1080" version="1.1" xmlns="http://www.w3.org/2000/svg" xmlns:xlink="http://www.w3.org/1999/xlink" xml:space="preserve" xmlns:serif="http://www.serif.com/" style="fill-rule:evenodd;clip-rule:evenodd;stroke-linejoin:round;stroke-miterlimit:2;"><rect id="Artboard1" x="0" y="0" width="1920" height="1080" style="fill:url(#_Linear1);"/><clipPath id="_clip2"><rect x="0" y="0" width="1920" height="1080"/></clipPath><g clip-path="url(#_clip2)"><clipPath id="_clip3"><rect id="blobs" x="1.065" y="-64.687" width="1917.87" height="1209.38"/></clipPath><g clip-path="url(#_clip3)"><path d="M133.418,874.083c-95.393,24.832 -70.421,-2.014 -167.314,-63.086c-15.149,27.74 -48.046,89.126 -58.435,112.749c-12.985,29.53 -43.951,128.186 -56.936,231.54c-12.986,103.354 58.435,58.388 115.371,34.228c56.937,-24.161 128.857,-36.241 140.844,44.965c11.987,81.212 140.344,51.683 247.725,38.255c107.38,-13.423 138.845,-56.375 174.306,-83.22c35.461,-26.846 19.978,-169.125 -11.987,-247.647c-31.964,-78.522 -96.892,-157.716 -148.834,-130.87c-51.943,26.845 -139.346,38.254 -234.74,63.086Z" style="fill:url(#_Radial4);fill-rule:nonzero;"/><path d="M1588.72,1360.08c81.909,-80.536 249.723,8.724 375.583,-38.255c25.472,0 31.465,-61.075 81.909,-97.316c50.444,-36.241 54.939,-55.704 91.898,-163.756c36.959,-108.051 -23.474,-72.482 -173.807,-146.306c-150.333,-73.824 -114.373,-24.832 -340.122,-31.543c-225.749,-6.711 -122.364,0 -318.146,134.897c-195.783,134.897 -83.907,126.172 -80.411,304.024c3.496,177.85 101.887,229.527 118.868,224.829c16.981,-4.698 31.964,-16.107 58.435,-108.052c26.47,-91.945 26.97,-116.777 58.934,-78.522c31.965,38.254 44.95,80.535 126.859,0Z" style="fill:url(#_Radial5);fill-rule:nonzero;"/><path d="M2020.22,138.039c-20.108,5.877 -64.878,42.327 -83.008,141.11c-46.328,79.957 -100.758,102.973 -100.848,63.841c-0.09,-39.134 -49.724,-93.714 -105.223,-130.199c-55.258,-36.326 -5.574,-145.43 26.74,-216.377l0.42,-0.926c32.304,-70.92 37.039,12.276 89.241,-6.587c41.763,-15.091 45.05,-28.733 41.464,-33.667c38.667,4.673 126.539,26.014 168.652,73.996c42.114,47.982 -7.411,92.532 -37.438,108.809Z" style="fill:url(#_Radial6);fill-rule:nonzero;"/><path d="M427.584,-119.189c54.939,-65.1 21.975,-56.375 80.41,-128.856c70.422,0 26.97,69.797 33.463,90.602c6.493,20.805 6.992,128.185 -73.418,177.178c-80.411,48.992 -16.982,72.482 -40.455,169.125c-23.474,96.642 -38.458,56.375 -108.879,81.206c-70.422,24.832 -75.417,-29.529 -122.364,-92.615c-46.948,-63.087 18.479,-89.932 46.947,-157.716c28.469,-67.784 33.463,-67.113 75.417,-48.993c41.953,18.121 53.94,-24.832 108.879,-89.931Z" style="fill:url(#_Radial7);fill-rule:nonzero;"/><path d="M771.579,305.413c-75.553,-22.919 -54.57,-202.431 -50.76,-325.142c-0.583,-22.019 12.835,-92.636 71.161,-198.953c72.907,-132.896 80.546,12.18 71.158,73.586c-9.389,61.406 13.062,106.429 71.929,150.736c58.865,44.307 128.488,-67.022 184.316,-35.661c55.838,31.36 -57.656,185.626 -97.122,236.125c-39.46,50.5 21.236,89.128 -5.734,141.897c-26.973,52.767 -89.405,98.158 -131.085,85.896c-41.68,-12.263 -38.31,-105.564 -113.863,-128.484Z" style="fill:url(#_Radial8);fill-rule:nonzero;"/></g><circle cx="11.959" cy="287.027" r="3.649" style="fill:#fff;"/><circle cx="54.527" cy="287.027" r="3.649" style="fill:#fff;"/><circle cx="11.959" cy="329.595" r="3.649" style="fill:#fff;"/><circle cx="54.527" cy="329.595" r="3.649" style="fill:#fff;"/><circle cx="11.959" cy="372.162" r="3.649" style="fill:#fff;"/><circle cx="54.527" cy="372.162" r="3.649" style="fill:#fff;"/><circle cx="11.959" cy="414.73" r="3.649" style="fill:#fff;"/><circle cx="54.527" cy="414.73" r="3.649" style="fill:#fff;"/><circle cx="11.959" cy="457.297" r="3.649" style="fill:#fff;"/><circle cx="54.527" cy="457.297" r="3.649" style="fill:#fff;"/><circle cx="11.959" cy="499.865" r="3.649" style="fill:#fff;"/><circle cx="54.527" cy="499.865" r="3.649" style="fill:#fff;"/><circle cx="11.959" cy="542.432" r="3.649" style="fill:#fff;"/><circle cx="54.527" cy="542.432" r="3.649" style="fill:#fff;"/><circle cx="11.959" cy="585" r="3.649" style="fill:#fff;"/><circle cx="54.527" cy="585" r="3.649" style="fill:#fff;"/><circle cx="944.797" cy="3.649" r="3.649" style="fill:#fff;"/><circle cx="987.365" cy="3.649" r="3.649" style="fill:#fff;"/><circle cx="1029.93" cy="3.649" r="3.649" style="fill:#fff;"/><circle cx="1072.5" cy="3.649" r="3.649" style="fill:#fff;"/><circle cx="1115.07" cy="3.649" r="3.649" style="fill:#fff;"/><circle cx="1157.63" cy="3.649" r="3.649" style="fill:#fff;"/><circle cx="1200.2" cy="3.649" r="3.649" style="fill:#fff;"/><circle cx="1242.77" cy="3.649" r="3.649" style="fill:#fff;"/><circle cx="1285.34" cy="3.649" r="3.649" style="fill:#fff;"/><circle cx="1327.9" cy="3.649" r="3.649" style="fill:#fff;"/><circle cx="1370.47" cy="3.649" r="3.649" style="fill:#fff;"/><circle cx="1413.04" cy="3.649" r="3.649" style="fill:#fff;"/><circle cx="1455.61" cy="3.649" r="3.649" style="fill:#fff;"/><circle cx="1498.18" cy="3.649" r="3.649" style="fill:#fff;"/><circle cx="1540.74" cy="3.649" r="3.649" style="fill:#fff;"/><circle cx="1583.31" cy="3.649" r="3.649" style="fill:#fff;"/><circle cx="1625.88" cy="3.649" r="3.649" style="fill:#fff;"/><circle cx="1668.45" cy="3.649" r="3.649" style="fill:#fff;"/><circle cx="1711.01" cy="3.649" r="3.649" style="fill:#fff;"/><circle cx="1753.58" cy="3.649" r="3.649" style="fill:#fff;"/><circle cx="944.797" cy="46.216" r="3.649" style="fill:#fff;"/><circle cx="987.365" cy="46.216" r="3.649" style="fill:#fff;"/><circle cx="1029.93" cy="46.216" r="3.649" style="fill:#fff;"/><circle cx="1072.5" cy="46.216" r="3.649" style="fill:#fff;"/><circle cx="1115.07" cy="46.216" r="3.649" style="fill:#fff;"/><circle cx="1157.63" cy="46.216" r="3.649" style="fill:#fff;"/><circle cx="1200.2" cy="46.216" r="3.649" style="fill:#fff;"/><circle cx="1242.77" cy="46.216" r="3.649" style="fill:#fff;"/><circle cx="1285.34" cy="46.216" r="3.649" style="fill:#fff;"/><circle cx="1327.9" cy="46.216" r="3.649" style="fill:#fff;"/><circle cx="1370.47" cy="46.216" r="3.649" style="fill:#fff;"/><circle cx="1413.04" cy="46.216" r="3.649" style="fill:#fff;"/><circle cx="1455.61" cy="46.216" r="3.649" style="fill:#fff;"/><circle cx="1498.18" cy="46.216" r="3.649" style="fill:#fff;"/><circle cx="1540.74" cy="46.216" r="3.649" style="fill:#fff;"/><circle cx="1583.31" cy="46.216" r="3.649" style="fill:#fff;"/><circle cx="1625.88" cy="46.216" r="3.649" style="fill:#fff;"/><circle cx="1668.45" cy="46.216" r="3.649" style="fill:#fff;"/><circle cx="1711.01" cy="46.216" r="3.649" style="fill:#fff;"/><circle cx="1753.58" cy="46.216" r="3.649" style="fill:#fff;"/><circle cx="944.797" cy="88.784" r="3.649" style="fill:#fff;"/><circle cx="987.365" cy="88.784" r="3.649" style="fill:#fff;"/><circle cx="1029.93" cy="88.784" r="3.649" style="fill:#fff;"/><circle cx="1072.5" cy="88.784" r="3.649" style="fill:#fff;"/><circle cx="1115.07" cy="88.784" r="3.649" style="fill:#fff;"/><circle cx="1157.63" cy="88.784" r="3.649" style="fill:#fff;"/><circle cx="1200.2" cy="88.784" r="3.649" style="fill:#fff;"/><circle cx="1242.77" cy="88.784" r="3.649" style="fill:#fff;"/><circle cx="1285.34" cy="88.784" r="3.649" style="fill:#fff;"/><circle cx="1327.9" cy="88.784" r="3.649" style="fill:#fff;"/><circle cx="1370.47" cy="88.784" r="3.649" style="fill:#fff;"/><circle cx="1413.04" cy="88.784" r="3.649" style="fill:#fff;"/><circle cx="1455.61" cy="88.784" r="3.649" style="fill:#fff;"/><circle cx="1498.18" cy="88.784" r="3.649" style="fill:#fff;"/><circle cx="1540.74" cy="88.784" r="3.649" style="fill:#fff;"/><circle cx="1583.31" cy="88.784" r="3.649" style="fill:#fff;"/><circle cx="1625.88" cy="88.784" r="3.649" style="fill:#fff;"/><circle cx="1668.45" cy="88.784" r="3.649" style="fill:#fff;"/><circle cx="1711.01" cy="88.784" r="3.649" style="fill:#fff;"/><circle cx="1753.58" cy="88.784" r="3.649" style="fill:#fff;"/><circle cx="944.797" cy="131.351" r="3.649" style="fill:#fff;"/><circle cx="987.365" cy="131.351" r="3.649" style="fill:#fff;"/><circle cx="1029.93" cy="131.351" r="3.649" style="fill:#fff;"/><circle cx="1072.5" cy="131.351" r="3.649" style="fill:#fff;"/><circle cx="1115.07" cy="131.351" r="3.649" style="fill:#fff;"/><circle cx="1157.63" cy="131.351" r="3.649" style="fill:#fff;"/><circle cx="1200.2" cy="131.351" r="3.649" style="fill:#fff;"/><circle cx="1242.77" cy="131.351" r="3.649" style="fill:#fff;"/><circle cx="1285.34" cy="131.351" r="3.649" style="fill:#fff;"/><circle cx="1327.9" cy="131.351" r="3.649" style="fill:#fff;"/><circle cx="1370.47" cy="131.351" r="3.649" style="fill:#fff;"/><circle cx="1413.04" cy="131.351" r="3.649" style="fill:#fff;"/><circle cx="1455.61" cy="131.351" r="3.649" style="fill:#fff;"/><circle cx="1498.18" cy="131.351" r="3.649" style="fill:#fff;"/><circle cx="1540.74" cy="131.351" r="3.649" style="fill:#fff;"/><circle cx="1583.31" cy="131.351" r="3.649" style="fill:#fff;"/><circle cx="1625.88" cy="131.351" r="3.649" style="fill:#fff;"/><circle cx="1668.45" cy="131.351" r="3.649" style="fill:#fff;"/><circle cx="1711.01" cy="131.351" r="3.649" style="fill:#fff;"/><circle cx="1753.58" cy="131.351" r="3.649" style="fill:#fff;"/><circle cx="1439.8" cy="820.946" r="3.649" style="fill:#fff;"/><circle cx="1482.37" cy="820.946" r="3.649" style="fill:#fff;"/><circle cx="1524.93" cy="820.946" r="3.649" style="fill:#fff;"/><circle cx="1567.5" cy="820.946" r="3.649" style="fill:#fff;"/><circle cx="1610.07" cy="820.946" r="3.649" style="fill:#fff;"/><circle cx="1652.63" cy="820.946" r="3.649" style="fill:#fff;"/><circle cx="1695.2" cy="820.946" r="3.649" style="fill:#fff;"/><circle cx="1737.77" cy="820.946" r="3.649" style="fill:#fff;"/><circle cx="1780.34" cy="820.946" r="3.649" style="fill:#fff;"/><circle cx="1822.9" cy="820.946" r="3.649" style="fill:#fff;"/><circle cx="1865.47" cy="820.946" r="3.649" style="fill:#fff;"/><circle cx="1908.04" cy="820.946" r="3.649" style="fill:#fff;"/><circle cx="1439.8" cy="863.514" r="3.649" style="fill:#fff;"/><circle cx="1482.37" cy="863.514" r="3.649" style="fill:#fff;"/><circle cx="1524.93" cy="863.514" r="3.649" style="fill:#fff;"/><circle cx="1567.5" cy="863.514" r="3.649" style="fill:#fff;"/><circle cx="1610.07" cy="863.514" r="3.649" style="fill:#fff;"/><circle cx="1652.63" cy="863.514" r="3.649" style="fill:#fff;"/><circle cx="1695.2" cy="863.514" r="3.649" style="fill:#fff;"/><circle cx="1737.77" cy="863.514" r="3.649" style="fill:#fff;"/><circle cx="1780.34" cy="863.514" r="3.649" style="fill:#fff;"/><circle cx="1822.9" cy="863.514" r="3.649" style="fill:#fff;"/><circle cx="1865.47" cy="863.514" r="3.649" style="fill:#fff;"/><circle cx="1908.04" cy="863.514" r="3.649" style="fill:#fff;"/><circle cx="1439.8" cy="906.081" r="3.649" style="fill:#fff;"/><circle cx="1482.37" cy="906.081" r="3.649" style="fill:#fff;"/><circle cx="1524.93" cy="906.081" r="3.649" style="fill:#fff;"/><circle cx="1567.5" cy="906.081" r="3.649" style="fill:#fff;"/><circle cx="1610.07" cy="906.081" r="3.649" style="fill:#fff;"/><circle cx="1652.63" cy="906.081" r="3.649" style="fill:#fff;"/><circle cx="1695.2" cy="906.081" r="3.649" style="fill:#fff;"/><circle cx="1737.77" cy="906.081" r="3.649" style="fill:#fff;"/><circle cx="1780.34" cy="906.081" r="3.649" style="fill:#fff;"/><circle cx="1822.9" cy="906.081" r="3.649" style="fill:#fff;"/><circle cx="1865.47" cy="906.081" r="3.649" style="fill:#fff;"/><circle cx="1908.04" cy="906.081" r="3.649" style="fill:#fff;"/><circle cx="1439.8" cy="948.649" r="3.649" style="fill:#fff;"/><circle cx="1482.37" cy="948.649" r="3.649" style="fill:#fff;"/><circle cx="1524.93" cy="948.649" r="3.649" style="fill:#fff;"/><circle cx="1567.5" cy="948.649" r="3.649" style="fill:#fff;"/><circle cx="1610.07" cy="948.649" r="3.649" style="fill:#fff;"/><circle cx="1652.63" cy="948.649" r="3.649" style="fill:#fff;"/><circle cx="1695.2" cy="948.649" r="3.649" style="fill:#fff;"/><circle cx="1737.77" cy="948.649" r="3.649" style="fill:#fff;"/><circle cx="1780.34" cy="948.649" r="3.649" style="fill:#fff;"/><circle cx="1822.9" cy="948.649" r="3.649" style="fill:#fff;"/><circle cx="1865.47" cy="948.649" r="3.649" style="fill:#fff;"/><circle cx="1908.04" cy="948.649" r="3.649" style="fill:#fff;"/><circle cx="1439.8" cy="991.216" r="3.649" style="fill:#fff;"/><circle cx="1482.37" cy="991.216" r="3.649" style="fill:#fff;"/><circle cx="1524.93" cy="991.216" r="3.649" style="fill:#fff;"/><circle cx="1567.5" cy="991.216" r="3.649" style="fill:#fff;"/><circle cx="1610.07" cy="991.216" r="3.649" style="fill:#fff;"/><circle cx="1652.63" cy="991.216" r="3.649" style="fill:#fff;"/><circle cx="1695.2" cy="991.216" r="3.649" style="fill:#fff;"/><circle cx="1737.77" cy="991.216" r="3.649" style="fill:#fff;"/><circle cx="1780.34" cy="991.216" r="3.649" style="fill:#fff;"/><circle cx="1822.9" cy="991.216" r="3.649" style="fill:#fff;"/><circle cx="1865.47" cy="991.216" r="3.649" style="fill:#fff;"/><circle cx="1908.04" cy="991.216" r="3.649" style="fill:#fff;"/><circle cx="1439.8" cy="1033.78" r="3.649" style="fill:#fff;"/><circle cx="1482.37" cy="1033.78" r="3.649" style="fill:#fff;"/><circle cx="1524.93" cy="1033.78" r="3.649" style="fill:#fff;"/><circle cx="1567.5" cy="1033.78" r="3.649" style="fill:#fff;"/><circle cx="1610.07" cy="1033.78" r="3.649" style="fill:#fff;"/><circle cx="1652.63" cy="1033.78" r="3.649" style="fill:#fff;"/><circle cx="1695.2" cy="1033.78" r="3.649" style="fill:#fff;"/><circle cx="1737.77" cy="1033.78" r="3.649" style="fill:#fff;"/><circle cx="1780.34" cy="1033.78" r="3.649" style="fill:#fff;"/><circle cx="1822.9" cy="1033.78" r="3.649" style="fill:#fff;"/><circle cx="1865.47" cy="1033.78" r="3.649" style="fill:#fff;"/><circle cx="1908.04" cy="1033.78" r="3.649" style="fill:#fff;"/><circle cx="1439.8" cy="1076.35" r="3.649" style="fill:#fff;"/><circle cx="1482.37" cy="1076.35" r="3.649" style="fill:#fff;"/><circle cx="1524.93" cy="1076.35" r="3.649" style="fill:#fff;"/><circle cx="1567.5" cy="1076.35" r="3.649" style="fill:#fff;"/><circle cx="1610.07" cy="1076.35" r="3.649" style="fill:#fff;"/><circle cx="1652.63" cy="1076.35" r="3.649" style="fill:#fff;"/><circle cx="1695.2" cy="1076.35" r="3.649" style="fill:#fff;"/><circle cx="1737.77" cy="1076.35" r="3.649" style="fill:#fff;"/><circle cx="1780.34" cy="1076.35" r="3.649" style="fill:#fff;"/><circle cx="1822.9" cy="1076.35" r="3.649" style="fill:#fff;"/><circle cx="1865.47" cy="1076.35" r="3.649" style="fill:#fff;"/><circle cx="1908.04" cy="1076.35" r="3.649" style="fill:#fff;"/></g><defs><linearGradient id="_Linear1" x1="0" y1="0" x2="1" y2="0" gradientUnits="userSpaceOnUse" gradientTransform="matrix(5.51091e-14,1080,-900,6.61309e-14,960,0)"><stop offset="0" style="stop-color:#00d0fe;stop-opacity:1"/><stop offset="1" style="stop-color:#7c39bf;stop-opacity:1"/></linearGradient><radialGradient id="_Radial4" cx="0" cy="0" r="1" gradientUnits="userSpaceOnUse" gradientTransform="matrix(-6.88802e-14,241.756,-350.05,-1.80088e-13,199.235,1047.41)"><stop offset="0" style="stop-color:#9756d8;stop-opacity:1"/><stop offset="1" style="stop-color:#c4c4c4;stop-opacity:0"/></radialGradient><radialGradient id="_Radial5" cx="0" cy="0" r="1" gradientUnits="userSpaceOnUse" gradientTransform="matrix(-9.59908e-14,-336.908,479.012,-2.46434e-13,1669.67,1210.03)"><stop offset="0" style="stop-color:#9756d8;stop-opacity:1"/><stop offset="1" style="stop-color:#c4c4c4;stop-opacity:0"/></radialGradient><radialGradient id="_Radial6" cx="0" cy="0" r="1" gradientUnits="userSpaceOnUse" gradientTransform="matrix(154.422,-125.379,76.5434,170.227,1887.19,110.646)"><stop offset="0" style="stop-color:#00d0fe;stop-opacity:1"/><stop offset="0.06" style="stop-color:#00d0fe;stop-opacity:1"/><stop offset="1" style="stop-color:#c4c4c4;stop-opacity:0"/></radialGradient><radialGradient id="_Radial7" cx="0" cy="0" r="1" gradientUnits="userSpaceOnUse" gradientTransform="matrix(-7.46848e-14,262.128,-184.485,-9.49109e-14,364.352,14.0821)"><stop offset="0" style="stop-color:#00d0fe;stop-opacity:1"/><stop offset="0.06" style="stop-color:#00d0fe;stop-opacity:1"/><stop offset="1" style="stop-color:#c4c4c4;stop-opacity:0"/></radialGradient><radialGradient id="_Radial8" cx="0" cy="0" r="1" gradientUnits="userSpaceOnUse" gradientTransform="matrix(112.497,309.99,-202.61,132.768,909.497,62.4506)"><stop offset="0" style="stop-color:#00d0fe;stop-opacity:1"/><stop offset="0.06" style="stop-color:#00d0fe;stop-opacity:1"/><stop offset="1" style="stop-color:#c4c4c4;stop-opacity:0"/></radialGradient></defs></svg>