<?xml version="1.0" encoding="UTF-8" standalone="no"?><!DOCTYPE svg PUBLIC "-//W3C//DTD SVG 1.1//EN" "http://www.w3.org/Graphics/SVG/1.1/DTD/svg11.dtd"><svg width="100%" height="100%" viewBox="0 0 8855 3700" version="1.1" xmlns="http://www.w3.org/2000/svg" xmlns:xlink="http://www.w3.org/1999/xlink" xml:space="preserve" xmlns:serif="http://www.serif.com/" style="fill-rule:evenodd;clip-rule:evenodd;stroke-linejoin:round;stroke-miterlimit:2;"><circle cx="12.5" cy="983.333" r="12.5" style="fill:#fff;"/><circle cx="158.333" cy="983.333" r="12.5" style="fill:#fff;"/><circle cx="304.167" cy="983.333" r="12.5" style="fill:#fff;"/><circle cx="450" cy="983.333" r="12.5" style="fill:#fff;"/><circle cx="595.833" cy="983.333" r="12.5" style="fill:#fff;"/><circle cx="741.667" cy="983.333" r="12.5" style="fill:#fff;"/><circle cx="887.5" cy="983.333" r="12.5" style="fill:#fff;"/><circle cx="1033.33" cy="983.333" r="12.5" style="fill:#fff;"/><circle cx="1179.17" cy="983.333" r="12.5" style="fill:#fff;"/><circle cx="1325" cy="983.333" r="12.5" style="fill:#fff;"/><circle cx="12.5" cy="1129.17" r="12.5" style="fill:#fff;"/><circle cx="158.333" cy="1129.17" r="12.5" style="fill:#fff;"/><circle cx="304.167" cy="1129.17" r="12.5" style="fill:#fff;"/><circle cx="450" cy="1129.17" r="12.5" style="fill:#fff;"/><circle cx="595.833" cy="1129.17" r="12.5" style="fill:#fff;"/><circle cx="741.667" cy="1129.17" r="12.5" style="fill:#fff;"/><circle cx="887.5" cy="1129.17" r="12.5" style="fill:#fff;"/><circle cx="1033.33" cy="1129.17" r="12.5" style="fill:#fff;"/><circle cx="1179.17" cy="1129.17" r="12.5" style="fill:#fff;"/><circle cx="1325" cy="1129.17" r="12.5" style="fill:#fff;"/><circle cx="12.5" cy="1275" r="12.5" style="fill:#fff;"/><circle cx="158.333" cy="1275" r="12.5" style="fill:#fff;"/><circle cx="304.167" cy="1275" r="12.5" style="fill:#fff;"/><circle cx="450" cy="1275" r="12.5" style="fill:#fff;"/><circle cx="595.833" cy="1275" r="12.5" style="fill:#fff;"/><circle cx="741.667" cy="1275" r="12.5" style="fill:#fff;"/><circle cx="887.5" cy="1275" r="12.5" style="fill:#fff;"/><circle cx="1033.33" cy="1275" r="12.5" style="fill:#fff;"/><circle cx="1179.17" cy="1275" r="12.5" style="fill:#fff;"/><circle cx="1325" cy="1275" r="12.5" style="fill:#fff;"/><circle cx="12.5" cy="1420.83" r="12.5" style="fill:#fff;"/><circle cx="158.333" cy="1420.83" r="12.5" style="fill:#fff;"/><circle cx="304.167" cy="1420.83" r="12.5" style="fill:#fff;"/><circle cx="450" cy="1420.83" r="12.5" style="fill:#fff;"/><circle cx="595.833" cy="1420.83" r="12.5" style="fill:#fff;"/><circle cx="741.667" cy="1420.83" r="12.5" style="fill:#fff;"/><circle cx="887.5" cy="1420.83" r="12.5" style="fill:#fff;"/><circle cx="1033.33" cy="1420.83" r="12.5" style="fill:#fff;"/><circle cx="1179.17" cy="1420.83" r="12.5" style="fill:#fff;"/><circle cx="1325" cy="1420.83" r="12.5" style="fill:#fff;"/><circle cx="12.5" cy="1566.67" r="12.5" style="fill:#fff;"/><circle cx="158.333" cy="1566.67" r="12.5" style="fill:#fff;"/><circle cx="304.167" cy="1566.67" r="12.5" style="fill:#fff;"/><circle cx="450" cy="1566.67" r="12.5" style="fill:#fff;"/><circle cx="595.833" cy="1566.67" r="12.5" style="fill:#fff;"/><circle cx="741.667" cy="1566.67" r="12.5" style="fill:#fff;"/><circle cx="887.5" cy="1566.67" r="12.5" style="fill:#fff;"/><circle cx="1033.33" cy="1566.67" r="12.5" style="fill:#fff;"/><circle cx="1179.17" cy="1566.67" r="12.5" style="fill:#fff;"/><circle cx="1325" cy="1566.67" r="12.5" style="fill:#fff;"/><circle cx="12.5" cy="1712.5" r="12.5" style="fill:#fff;"/><circle cx="158.333" cy="1712.5" r="12.5" style="fill:#fff;"/><circle cx="304.167" cy="1712.5" r="12.5" style="fill:#fff;"/><circle cx="450" cy="1712.5" r="12.5" style="fill:#fff;"/><circle cx="595.833" cy="1712.5" r="12.5" style="fill:#fff;"/><circle cx="741.667" cy="1712.5" r="12.5" style="fill:#fff;"/><circle cx="887.5" cy="1712.5" r="12.5" style="fill:#fff;"/><circle cx="1033.33" cy="1712.5" r="12.5" style="fill:#fff;"/><circle cx="1179.17" cy="1712.5" r="12.5" style="fill:#fff;"/><circle cx="1325" cy="1712.5" r="12.5" style="fill:#fff;"/><circle cx="12.5" cy="1858.33" r="12.5" style="fill:#fff;"/><circle cx="158.333" cy="1858.33" r="12.5" style="fill:#fff;"/><circle cx="304.167" cy="1858.33" r="12.5" style="fill:#fff;"/><circle cx="450" cy="1858.33" r="12.5" style="fill:#fff;"/><circle cx="595.833" cy="1858.33" r="12.5" style="fill:#fff;"/><circle cx="741.667" cy="1858.33" r="12.5" style="fill:#fff;"/><circle cx="887.5" cy="1858.33" r="12.5" style="fill:#fff;"/><circle cx="1033.33" cy="1858.33" r="12.5" style="fill:#fff;"/><circle cx="1179.17" cy="1858.33" r="12.5" style="fill:#fff;"/><circle cx="1325" cy="1858.33" r="12.5" style="fill:#fff;"/><circle cx="12.5" cy="2004.17" r="12.5" style="fill:#fff;"/><circle cx="158.333" cy="2004.17" r="12.5" style="fill:#fff;"/><circle cx="304.167" cy="2004.17" r="12.5" style="fill:#fff;"/><circle cx="450" cy="2004.17" r="12.5" style="fill:#fff;"/><circle cx="595.833" cy="2004.17" r="12.5" style="fill:#fff;"/><circle cx="741.667" cy="2004.17" r="12.5" style="fill:#fff;"/><circle cx="887.5" cy="2004.17" r="12.5" style="fill:#fff;"/><circle cx="1033.33" cy="2004.17" r="12.5" style="fill:#fff;"/><circle cx="1179.17" cy="2004.17" r="12.5" style="fill:#fff;"/><circle cx="1325" cy="2004.17" r="12.5" style="fill:#fff;"/><circle cx="4375" cy="12.5" r="12.5" style="fill:#fff;"/><circle cx="4520.83" cy="12.5" r="12.5" style="fill:#fff;"/><circle cx="4666.67" cy="12.5" r="12.5" style="fill:#fff;"/><circle cx="4812.5" cy="12.5" r="12.5" style="fill:#fff;"/><circle cx="4958.33" cy="12.5" r="12.5" style="fill:#fff;"/><circle cx="5104.17" cy="12.5" r="12.5" style="fill:#fff;"/><circle cx="5250" cy="12.5" r="12.5" style="fill:#fff;"/><circle cx="5395.83" cy="12.5" r="12.5" style="fill:#fff;"/><circle cx="5541.67" cy="12.5" r="12.5" style="fill:#fff;"/><circle cx="5687.5" cy="12.5" r="12.5" style="fill:#fff;"/><circle cx="5833.33" cy="12.5" r="12.5" style="fill:#fff;"/><circle cx="5979.17" cy="12.5" r="12.5" style="fill:#fff;"/><circle cx="6125" cy="12.5" r="12.5" style="fill:#fff;"/><circle cx="6270.83" cy="12.5" r="12.5" style="fill:#fff;"/><circle cx="6416.67" cy="12.5" r="12.5" style="fill:#fff;"/><circle cx="6562.5" cy="12.5" r="12.5" style="fill:#fff;"/><circle cx="6708.33" cy="12.5" r="12.5" style="fill:#fff;"/><circle cx="6854.17" cy="12.5" r="12.5" style="fill:#fff;"/><circle cx="7000" cy="12.5" r="12.5" style="fill:#fff;"/><circle cx="7145.83" cy="12.5" r="12.5" style="fill:#fff;"/><circle cx="4375" cy="158.333" r="12.5" style="fill:#fff;"/><circle cx="4520.83" cy="158.333" r="12.5" style="fill:#fff;"/><circle cx="4666.67" cy="158.333" r="12.5" style="fill:#fff;"/><circle cx="4812.5" cy="158.333" r="12.5" style="fill:#fff;"/><circle cx="4958.33" cy="158.333" r="12.5" style="fill:#fff;"/><circle cx="5104.17" cy="158.333" r="12.5" style="fill:#fff;"/><circle cx="5250" cy="158.333" r="12.5" style="fill:#fff;"/><circle cx="5395.83" cy="158.333" r="12.5" style="fill:#fff;"/><circle cx="5541.67" cy="158.333" r="12.5" style="fill:#fff;"/><circle cx="5687.5" cy="158.333" r="12.5" style="fill:#fff;"/><circle cx="5833.33" cy="158.333" r="12.5" style="fill:#fff;"/><circle cx="5979.17" cy="158.333" r="12.5" style="fill:#fff;"/><circle cx="6125" cy="158.333" r="12.5" style="fill:#fff;"/><circle cx="6270.83" cy="158.333" r="12.5" style="fill:#fff;"/><circle cx="6416.67" cy="158.333" r="12.5" style="fill:#fff;"/><circle cx="6562.5" cy="158.333" r="12.5" style="fill:#fff;"/><circle cx="6708.33" cy="158.333" r="12.5" style="fill:#fff;"/><circle cx="6854.17" cy="158.333" r="12.5" style="fill:#fff;"/><circle cx="7000" cy="158.333" r="12.5" style="fill:#fff;"/><circle cx="7145.83" cy="158.333" r="12.5" style="fill:#fff;"/><circle cx="4375" cy="304.167" r="12.5" style="fill:#fff;"/><circle cx="4520.83" cy="304.167" r="12.5" style="fill:#fff;"/><circle cx="4666.67" cy="304.167" r="12.5" style="fill:#fff;"/><circle cx="4812.5" cy="304.167" r="12.5" style="fill:#fff;"/><circle cx="4958.33" cy="304.167" r="12.5" style="fill:#fff;"/><circle cx="5104.17" cy="304.167" r="12.5" style="fill:#fff;"/><circle cx="5250" cy="304.167" r="12.5" style="fill:#fff;"/><circle cx="5395.83" cy="304.167" r="12.5" style="fill:#fff;"/><circle cx="5541.67" cy="304.167" r="12.5" style="fill:#fff;"/><circle cx="5687.5" cy="304.167" r="12.5" style="fill:#fff;"/><circle cx="5833.33" cy="304.167" r="12.5" style="fill:#fff;"/><circle cx="5979.17" cy="304.167" r="12.5" style="fill:#fff;"/><circle cx="6125" cy="304.167" r="12.5" style="fill:#fff;"/><circle cx="6270.83" cy="304.167" r="12.5" style="fill:#fff;"/><circle cx="6416.67" cy="304.167" r="12.5" style="fill:#fff;"/><circle cx="6562.5" cy="304.167" r="12.5" style="fill:#fff;"/><circle cx="6708.33" cy="304.167" r="12.5" style="fill:#fff;"/><circle cx="6854.17" cy="304.167" r="12.5" style="fill:#fff;"/><circle cx="7000" cy="304.167" r="12.5" style="fill:#fff;"/><circle cx="7145.83" cy="304.167" r="12.5" style="fill:#fff;"/><circle cx="4375" cy="450" r="12.5" style="fill:#fff;"/><circle cx="4520.83" cy="450" r="12.5" style="fill:#fff;"/><circle cx="4666.67" cy="450" r="12.5" style="fill:#fff;"/><circle cx="4812.5" cy="450" r="12.5" style="fill:#fff;"/><circle cx="4958.33" cy="450" r="12.5" style="fill:#fff;"/><circle cx="5104.17" cy="450" r="12.5" style="fill:#fff;"/><circle cx="5250" cy="450" r="12.5" style="fill:#fff;"/><circle cx="5395.83" cy="450" r="12.5" style="fill:#fff;"/><circle cx="5541.67" cy="450" r="12.5" style="fill:#fff;"/><circle cx="5687.5" cy="450" r="12.5" style="fill:#fff;"/><circle cx="5833.33" cy="450" r="12.5" style="fill:#fff;"/><circle cx="5979.17" cy="450" r="12.5" style="fill:#fff;"/><circle cx="6125" cy="450" r="12.5" style="fill:#fff;"/><circle cx="6270.83" cy="450" r="12.5" style="fill:#fff;"/><circle cx="6416.67" cy="450" r="12.5" style="fill:#fff;"/><circle cx="6562.5" cy="450" r="12.5" style="fill:#fff;"/><circle cx="6708.33" cy="450" r="12.5" style="fill:#fff;"/><circle cx="6854.17" cy="450" r="12.5" style="fill:#fff;"/><circle cx="7000" cy="450" r="12.5" style="fill:#fff;"/><circle cx="7145.83" cy="450" r="12.5" style="fill:#fff;"/><circle cx="6070.83" cy="2812.5" r="12.5" style="fill:#fff;"/><circle cx="6216.67" cy="2812.5" r="12.5" style="fill:#fff;"/><circle cx="6362.5" cy="2812.5" r="12.5" style="fill:#fff;"/><circle cx="6508.33" cy="2812.5" r="12.5" style="fill:#fff;"/><circle cx="6654.17" cy="2812.5" r="12.5" style="fill:#fff;"/><circle cx="6800" cy="2812.5" r="12.5" style="fill:#fff;"/><circle cx="6945.83" cy="2812.5" r="12.5" style="fill:#fff;"/><circle cx="7091.67" cy="2812.5" r="12.5" style="fill:#fff;"/><circle cx="7237.5" cy="2812.5" r="12.5" style="fill:#fff;"/><circle cx="7383.33" cy="2812.5" r="12.5" style="fill:#fff;"/><circle cx="7529.17" cy="2812.5" r="12.5" style="fill:#fff;"/><circle cx="7675" cy="2812.5" r="12.5" style="fill:#fff;"/><circle cx="7820.83" cy="2812.5" r="12.5" style="fill:#fff;"/><circle cx="7966.67" cy="2812.5" r="12.5" style="fill:#fff;"/><circle cx="8112.5" cy="2812.5" r="12.5" style="fill:#fff;"/><circle cx="8258.33" cy="2812.5" r="12.5" style="fill:#fff;"/><circle cx="8404.17" cy="2812.5" r="12.5" style="fill:#fff;"/><circle cx="8550" cy="2812.5" r="12.5" style="fill:#fff;"/><circle cx="8695.83" cy="2812.5" r="12.5" style="fill:#fff;"/><circle cx="8841.67" cy="2812.5" r="12.5" style="fill:#fff;"/><circle cx="6070.83" cy="2958.33" r="12.5" style="fill:#fff;"/><circle cx="6216.67" cy="2958.33" r="12.5" style="fill:#fff;"/><circle cx="6362.5" cy="2958.33" r="12.5" style="fill:#fff;"/><circle cx="6508.33" cy="2958.33" r="12.5" style="fill:#fff;"/><circle cx="6654.17" cy="2958.33" r="12.5" style="fill:#fff;"/><circle cx="6800" cy="2958.33" r="12.5" style="fill:#fff;"/><circle cx="6945.83" cy="2958.33" r="12.5" style="fill:#fff;"/><circle cx="7091.67" cy="2958.33" r="12.5" style="fill:#fff;"/><circle cx="7237.5" cy="2958.33" r="12.5" style="fill:#fff;"/><circle cx="7383.33" cy="2958.33" r="12.5" style="fill:#fff;"/><circle cx="7529.17" cy="2958.33" r="12.5" style="fill:#fff;"/><circle cx="7675" cy="2958.33" r="12.5" style="fill:#fff;"/><circle cx="7820.83" cy="2958.33" r="12.5" style="fill:#fff;"/><circle cx="7966.67" cy="2958.33" r="12.5" style="fill:#fff;"/><circle cx="8112.5" cy="2958.33" r="12.5" style="fill:#fff;"/><circle cx="8258.33" cy="2958.33" r="12.5" style="fill:#fff;"/><circle cx="8404.17" cy="2958.33" r="12.5" style="fill:#fff;"/><circle cx="8550" cy="2958.33" r="12.5" style="fill:#fff;"/><circle cx="8695.83" cy="2958.33" r="12.5" style="fill:#fff;"/><circle cx="8841.67" cy="2958.33" r="12.5" style="fill:#fff;"/><circle cx="6070.83" cy="3104.17" r="12.5" style="fill:#fff;"/><circle cx="6216.67" cy="3104.17" r="12.5" style="fill:#fff;"/><circle cx="6362.5" cy="3104.17" r="12.5" style="fill:#fff;"/><circle cx="6508.33" cy="3104.17" r="12.5" style="fill:#fff;"/><circle cx="6654.17" cy="3104.17" r="12.5" style="fill:#fff;"/><circle cx="6800" cy="3104.17" r="12.5" style="fill:#fff;"/><circle cx="6945.83" cy="3104.17" r="12.5" style="fill:#fff;"/><circle cx="7091.67" cy="3104.17" r="12.5" style="fill:#fff;"/><circle cx="7237.5" cy="3104.17" r="12.5" style="fill:#fff;"/><circle cx="7383.33" cy="3104.17" r="12.5" style="fill:#fff;"/><circle cx="7529.17" cy="3104.17" r="12.5" style="fill:#fff;"/><circle cx="7675" cy="3104.17" r="12.5" style="fill:#fff;"/><circle cx="7820.83" cy="3104.17" r="12.5" style="fill:#fff;"/><circle cx="7966.67" cy="3104.17" r="12.5" style="fill:#fff;"/><circle cx="8112.5" cy="3104.17" r="12.5" style="fill:#fff;"/><circle cx="8258.33" cy="3104.17" r="12.5" style="fill:#fff;"/><circle cx="8404.17" cy="3104.17" r="12.5" style="fill:#fff;"/><circle cx="8550" cy="3104.17" r="12.5" style="fill:#fff;"/><circle cx="8695.83" cy="3104.17" r="12.5" style="fill:#fff;"/><circle cx="8841.67" cy="3104.17" r="12.5" style="fill:#fff;"/><circle cx="6070.83" cy="3250" r="12.5" style="fill:#fff;"/><circle cx="6216.67" cy="3250" r="12.5" style="fill:#fff;"/><circle cx="6362.5" cy="3250" r="12.5" style="fill:#fff;"/><circle cx="6508.33" cy="3250" r="12.5" style="fill:#fff;"/><circle cx="6654.17" cy="3250" r="12.5" style="fill:#fff;"/><circle cx="6800" cy="3250" r="12.5" style="fill:#fff;"/><circle cx="6945.83" cy="3250" r="12.5" style="fill:#fff;"/><circle cx="7091.67" cy="3250" r="12.5" style="fill:#fff;"/><circle cx="7237.5" cy="3250" r="12.5" style="fill:#fff;"/><circle cx="7383.33" cy="3250" r="12.5" style="fill:#fff;"/><circle cx="7529.17" cy="3250" r="12.5" style="fill:#fff;"/><circle cx="7675" cy="3250" r="12.5" style="fill:#fff;"/><circle cx="7820.83" cy="3250" r="12.5" style="fill:#fff;"/><circle cx="7966.67" cy="3250" r="12.5" style="fill:#fff;"/><circle cx="8112.5" cy="3250" r="12.5" style="fill:#fff;"/><circle cx="8258.33" cy="3250" r="12.5" style="fill:#fff;"/><circle cx="8404.17" cy="3250" r="12.5" style="fill:#fff;"/><circle cx="8550" cy="3250" r="12.5" style="fill:#fff;"/><circle cx="8695.83" cy="3250" r="12.5" style="fill:#fff;"/><circle cx="8841.67" cy="3250" r="12.5" style="fill:#fff;"/><circle cx="6070.83" cy="3395.83" r="12.5" style="fill:#fff;"/><circle cx="6216.67" cy="3395.83" r="12.5" style="fill:#fff;"/><circle cx="6362.5" cy="3395.83" r="12.5" style="fill:#fff;"/><circle cx="6508.33" cy="3395.83" r="12.5" style="fill:#fff;"/><circle cx="6654.17" cy="3395.83" r="12.5" style="fill:#fff;"/><circle cx="6800" cy="3395.83" r="12.5" style="fill:#fff;"/><circle cx="6945.83" cy="3395.83" r="12.5" style="fill:#fff;"/><circle cx="7091.67" cy="3395.83" r="12.5" style="fill:#fff;"/><circle cx="7237.5" cy="3395.83" r="12.5" style="fill:#fff;"/><circle cx="7383.33" cy="3395.83" r="12.5" style="fill:#fff;"/><circle cx="7529.17" cy="3395.83" r="12.5" style="fill:#fff;"/><circle cx="7675" cy="3395.83" r="12.5" style="fill:#fff;"/><circle cx="7820.83" cy="3395.83" r="12.5" style="fill:#fff;"/><circle cx="7966.67" cy="3395.83" r="12.5" style="fill:#fff;"/><circle cx="8112.5" cy="3395.83" r="12.5" style="fill:#fff;"/><circle cx="8258.33" cy="3395.83" r="12.5" style="fill:#fff;"/><circle cx="8404.17" cy="3395.83" r="12.5" style="fill:#fff;"/><circle cx="8550" cy="3395.83" r="12.5" style="fill:#fff;"/><circle cx="8695.83" cy="3395.83" r="12.5" style="fill:#fff;"/><circle cx="8841.67" cy="3395.83" r="12.5" style="fill:#fff;"/><circle cx="6070.83" cy="3541.67" r="12.5" style="fill:#fff;"/><circle cx="6216.67" cy="3541.67" r="12.5" style="fill:#fff;"/><circle cx="6362.5" cy="3541.67" r="12.5" style="fill:#fff;"/><circle cx="6508.33" cy="3541.67" r="12.5" style="fill:#fff;"/><circle cx="6654.17" cy="3541.67" r="12.5" style="fill:#fff;"/><circle cx="6800" cy="3541.67" r="12.5" style="fill:#fff;"/><circle cx="6945.83" cy="3541.67" r="12.5" style="fill:#fff;"/><circle cx="7091.67" cy="3541.67" r="12.5" style="fill:#fff;"/><circle cx="7237.5" cy="3541.67" r="12.5" style="fill:#fff;"/><circle cx="7383.33" cy="3541.67" r="12.5" style="fill:#fff;"/><circle cx="7529.17" cy="3541.67" r="12.5" style="fill:#fff;"/><circle cx="7675" cy="3541.67" r="12.5" style="fill:#fff;"/><circle cx="7820.83" cy="3541.67" r="12.5" style="fill:#fff;"/><circle cx="7966.67" cy="3541.67" r="12.5" style="fill:#fff;"/><circle cx="8112.5" cy="3541.67" r="12.5" style="fill:#fff;"/><circle cx="8258.33" cy="3541.67" r="12.5" style="fill:#fff;"/><circle cx="8404.17" cy="3541.67" r="12.5" style="fill:#fff;"/><circle cx="8550" cy="3541.67" r="12.5" style="fill:#fff;"/><circle cx="8695.83" cy="3541.67" r="12.5" style="fill:#fff;"/><circle cx="8841.67" cy="3541.67" r="12.5" style="fill:#fff;"/><circle cx="6070.83" cy="3687.5" r="12.5" style="fill:#fff;"/><circle cx="6216.67" cy="3687.5" r="12.5" style="fill:#fff;"/><circle cx="6362.5" cy="3687.5" r="12.5" style="fill:#fff;"/><circle cx="6508.33" cy="3687.5" r="12.5" style="fill:#fff;"/><circle cx="6654.17" cy="3687.5" r="12.5" style="fill:#fff;"/><circle cx="6800" cy="3687.5" r="12.5" style="fill:#fff;"/><circle cx="6945.83" cy="3687.5" r="12.5" style="fill:#fff;"/><circle cx="7091.67" cy="3687.5" r="12.5" style="fill:#fff;"/><circle cx="7237.5" cy="3687.5" r="12.5" style="fill:#fff;"/><circle cx="7383.33" cy="3687.5" r="12.5" style="fill:#fff;"/><circle cx="7529.17" cy="3687.5" r="12.5" style="fill:#fff;"/><circle cx="7675" cy="3687.5" r="12.5" style="fill:#fff;"/><circle cx="7820.83" cy="3687.5" r="12.5" style="fill:#fff;"/><circle cx="7966.67" cy="3687.5" r="12.5" style="fill:#fff;"/><circle cx="8112.5" cy="3687.5" r="12.5" style="fill:#fff;"/><circle cx="8258.33" cy="3687.5" r="12.5" style="fill:#fff;"/><circle cx="8404.17" cy="3687.5" r="12.5" style="fill:#fff;"/><circle cx="8550" cy="3687.5" r="12.5" style="fill:#fff;"/><circle cx="8695.83" cy="3687.5" r="12.5" style="fill:#fff;"/><circle cx="8841.67" cy="3687.5" r="12.5" style="fill:#fff;"/></svg>