<?xml version="1.0" encoding="UTF-8" standalone="no"?><!DOCTYPE svg PUBLIC "-//W3C//DTD SVG 1.1//EN" "http://www.w3.org/Graphics/SVG/1.1/DTD/svg11.dtd"><svg width="100%" height="100%" viewBox="0 0 1867 2134" version="1.1" xmlns="http://www.w3.org/2000/svg" xmlns:xlink="http://www.w3.org/1999/xlink" xml:space="preserve" xmlns:serif="http://www.serif.com/" style="fill-rule:evenodd;clip-rule:evenodd;stroke-linejoin:round;stroke-miterlimit:2;"><path d="M1238.4,1013.33c0,65.067 -48,118.4 -108.8,118.4c-59.733,0 -108.8,-53.333 -108.8,-118.4c0,-65.066 48,-118.4 108.8,-118.4c60.8,0 108.8,53.334 108.8,118.4Zm-498.133,-118.4c-60.8,0 -108.8,53.334 -108.8,118.4c0,65.067 49.066,118.4 108.8,118.4c60.8,0 108.8,-53.333 108.8,-118.4c1.066,-65.066 -48,-118.4 -108.8,-118.4Zm1126.4,-675.2l0,1913.6c-268.725,-237.475 -182.784,-158.866 -494.934,-449.066l56.534,197.333l-1209.6,0c-120.534,0 -218.667,-98.133 -218.667,-219.733l0,-1442.13c0,-121.6 98.133,-219.733 218.667,-219.733l1429.33,0c120.533,0 218.667,98.133 218.667,219.733Zm-304,1011.2c0,-343.466 -153.6,-621.866 -153.6,-621.866c-153.6,-115.2 -299.734,-112 -299.734,-112l-14.933,17.066c181.333,55.467 265.6,135.467 265.6,135.467c-253.379,-138.871 -551.017,-138.896 -796.8,-30.933c-39.467,18.133 -62.933,30.933 -62.933,30.933c0,0 88.533,-84.267 280.533,-139.733l-10.667,-12.8c0,0 -146.133,-3.2 -299.733,112c0,0 -153.6,278.4 -153.6,621.866c0,0 89.6,154.667 325.333,162.134c0,0 39.467,-48 71.467,-88.534c-135.467,-40.533 -186.667,-125.866 -186.667,-125.866c15.692,10.983 41.567,25.22 43.734,26.666c180.041,100.825 435.783,133.859 665.6,37.334c37.333,-13.867 78.933,-34.134 122.666,-62.934c0,0 -53.333,87.467 -193.066,126.934c32,40.533 70.4,86.4 70.4,86.4c235.733,-7.467 326.4,-162.134 326.4,-162.134Z" style="fill:#fff;fill-rule:nonzero;"/></svg>