<?xml version="1.0" encoding="UTF-8" standalone="no"?><!DOCTYPE svg PUBLIC "-//W3C//DTD SVG 1.1//EN" "http://www.w3.org/Graphics/SVG/1.1/DTD/svg11.dtd"><svg width="100%" height="100%" viewBox="0 0 2134 2134" version="1.1" xmlns="http://www.w3.org/2000/svg" xmlns:xlink="http://www.w3.org/1999/xlink" xml:space="preserve" xmlns:serif="http://www.serif.com/" style="fill-rule:evenodd;clip-rule:evenodd;stroke-linejoin:round;stroke-miterlimit:2;"><path d="M2092.92,795c16.25,-12.917 40.416,-0.833 40.416,19.583l0,852.084c0,110.416 -89.583,200 -200,200l-1733.33,0c-110.417,0 -200,-89.584 -200,-200l0,-851.667c0,-20.833 23.75,-32.5 40.417,-19.583c93.333,72.5 217.083,164.583 642.083,473.333c87.917,64.167 236.25,199.167 384.167,198.333c148.75,1.25 300,-136.666 384.583,-198.333c425,-308.75 548.333,-401.25 641.667,-473.75Zm-1026.25,538.333c96.666,1.667 235.833,-121.666 305.833,-172.5c552.917,-401.25 595,-436.25 722.5,-536.25c24.167,-18.75 38.333,-47.916 38.333,-78.75l0,-79.166c0,-110.417 -89.583,-200 -200,-200l-1733.33,0c-110.417,0 -200,89.583 -200,200l0,79.166c0,30.834 14.167,59.584 38.333,78.75c127.5,99.584 169.584,135 722.5,536.25c70,50.834 209.167,174.167 305.834,172.5Z" style="fill:#fbfbfb;fill-rule:nonzero;"/></svg>