<?xml version="1.0" encoding="UTF-8" standalone="no"?><!DOCTYPE svg PUBLIC "-//W3C//DTD SVG 1.1//EN" "http://www.w3.org/Graphics/SVG/1.1/DTD/svg11.dtd"><svg width="100%" height="100%" viewBox="0 0 2067 2134" version="1.1" xmlns="http://www.w3.org/2000/svg" xmlns:xlink="http://www.w3.org/1999/xlink" xml:space="preserve" xmlns:serif="http://www.serif.com/" style="fill-rule:evenodd;clip-rule:evenodd;stroke-linejoin:round;stroke-miterlimit:2;"><path d="M1402.08,666.667c-60.416,-372.084 -202.916,-633.334 -368.75,-633.334c-165.833,0 -308.333,261.25 -368.75,633.334l737.5,0Zm-768.75,400c0,92.5 5,181.25 13.75,266.666l772.084,0c8.75,-85.416 13.75,-174.166 13.75,-266.666c0,-92.5 -5,-181.25 -13.75,-266.667l-772.084,0c-8.75,85.417 -13.75,174.167 -13.75,266.667Zm1352.92,-400c-119.167,-282.917 -360.417,-501.667 -658.333,-590c101.666,140.833 171.666,352.916 208.333,590l450,0Zm-1247.92,-590c-297.5,88.333 -539.166,307.083 -657.916,590l450,0c36.25,-237.084 106.25,-449.167 207.916,-590Zm1292.5,723.333l-477.916,0c8.75,87.5 13.75,177.083 13.75,266.667c0,89.583 -5,179.166 -13.75,266.666l477.5,0c22.916,-85.416 35.833,-174.166 35.833,-266.666c0,-92.5 -12.917,-181.25 -35.417,-266.667Zm-1530.83,266.667c0,-89.584 5,-179.167 13.75,-266.667l-477.917,0c-22.5,85.417 -35.833,174.167 -35.833,266.667c0,92.5 13.333,181.25 35.833,266.666l477.5,0c-8.333,-87.5 -13.333,-177.083 -13.333,-266.666Zm164.583,400c60.417,372.083 202.917,633.333 368.75,633.333c165.834,0 308.334,-261.25 368.75,-633.333l-737.5,0Zm663.75,590c297.5,-88.334 539.167,-307.084 658.334,-590l-450,0c-36.667,237.083 -106.667,449.166 -208.334,590Zm-1247.92,-590c119.166,282.916 360.416,501.666 658.333,590c-101.667,-140.834 -171.667,-352.917 -208.333,-590l-450,0Z" style="fill:#fbfbfb;fill-rule:nonzero;"/></svg>