<?xml version="1.0" encoding="UTF-8" standalone="no"?><!DOCTYPE svg PUBLIC "-//W3C//DTD SVG 1.1//EN" "http://www.w3.org/Graphics/SVG/1.1/DTD/svg11.dtd"><svg width="100%" height="100%" viewBox="0 0 1867 2134" version="1.1" xmlns="http://www.w3.org/2000/svg" xmlns:xlink="http://www.w3.org/1999/xlink" xml:space="preserve" xmlns:serif="http://www.serif.com/" style="fill-rule:evenodd;clip-rule:evenodd;stroke-linejoin:round;stroke-miterlimit:2;"><path d="M1733.33,133.333l-1600.42,0c-73.334,0 -132.917,60.417 -132.917,134.584l0,1597.5c0,74.166 59.583,134.583 132.917,134.583l1600.42,0c73.334,0 133.334,-60.417 133.334,-134.583l0,-1597.5c0,-74.167 -60,-134.584 -133.334,-134.584Zm-1168.75,1600l-277.083,0l0,-890.833l277.083,0l0,890.833Zm-138.75,-1012.5c-88.75,0 -160.416,-72.083 -160.416,-160.416c0,-88.334 71.666,-160.417 160.416,-160.417c88.334,0 160.417,72.083 160.417,160.417c0,88.75 -71.667,160.416 -160.417,160.416Zm1175.42,1012.5l-276.667,0l0,-433.333c0,-103.333 -2.083,-236.25 -143.75,-236.25c-144.166,0 -166.25,112.5 -166.25,228.75l0,440.833l-276.666,0l0,-890.833l265.416,0l0,121.667l3.75,0c37.084,-70 127.5,-143.75 262.084,-143.75c280,0 332.083,184.583 332.083,424.583l0,488.333Z" style="fill:#fbfbfb;fill-rule:nonzero;"/></svg>