<?xml version="1.0" encoding="UTF-8" standalone="no"?><!DOCTYPE svg PUBLIC "-//W3C//DTD SVG 1.1//EN" "http://www.w3.org/Graphics/SVG/1.1/DTD/svg11.dtd"><svg width="100%" height="100%" viewBox="0 0 2134 2134" version="1.1" xmlns="http://www.w3.org/2000/svg" xmlns:xlink="http://www.w3.org/1999/xlink" xml:space="preserve" xmlns:serif="http://www.serif.com/" style="fill-rule:evenodd;clip-rule:evenodd;stroke-linejoin:round;stroke-miterlimit:2;"><path d="M1914.04,632.15c1.354,18.95 1.354,37.904 1.354,56.854c0,578 -439.929,1243.99 -1243.99,1243.99c-247.717,0 -477.833,-71.746 -671.404,-196.275c35.196,4.058 69.033,5.412 105.583,5.412c204.396,0 392.554,-69.033 542.809,-186.8c-192.217,-4.062 -353.3,-129.95 -408.8,-303.216c27.075,4.058 54.145,6.766 82.575,6.766c39.254,0 78.512,-5.416 115.058,-14.887c-200.338,-40.613 -350.596,-216.584 -350.596,-429.104l0,-5.413c58.204,32.488 125.892,52.792 197.629,55.496c-117.766,-78.513 -194.921,-212.521 -194.921,-364.129c0,-81.217 21.655,-155.667 59.559,-220.642c215.229,265.313 538.75,438.575 901.521,457.529c-6.767,-32.487 -10.829,-66.325 -10.829,-100.166c0,-240.95 194.924,-437.225 437.225,-437.225c125.887,0 239.591,52.791 319.458,138.07c98.812,-18.95 193.567,-55.5 277.496,-105.583c-32.492,101.525 -101.525,186.804 -192.217,240.946c87.988,-9.471 173.267,-33.842 251.775,-67.679c-59.55,86.629 -134.004,163.783 -219.283,226.054Z" style="fill:#fff;fill-rule:nonzero;"/></svg>